<?xml version="1.0" encoding="iso-8859-1"?>
<!-- Generator: Adobe Illustrator 29.7.1, SVG Export Plug-In . SVG Version: 9.03 Build 0)  -->
<svg version="1.1" id="Layer_1" xmlns="http://www.w3.org/2000/svg" xmlns:xlink="http://www.w3.org/1999/xlink" x="0px" y="0px"
	 viewBox="0 0 841.89 232.435" style="enable-background:new 0 0 841.89 232.435;" xml:space="preserve">
<g>
	<g>
		<g>
			<path style="fill:#211D70;" d="M158.073,82.168v33.859h-16.349V31.671h25.278c8.387,0,14.987,2.184,19.799,6.551
				c4.812,4.368,7.218,10.456,7.218,18.263c0,4.368-1.015,8.156-3.044,11.364c-2.03,3.209-4.957,5.76-8.784,7.653
				c4.406,1.469,7.575,3.905,9.508,7.305c1.932,3.402,2.898,7.653,2.898,12.755v6.146c0,2.358,0.27,4.832,0.812,7.42
				c0.541,2.59,1.507,4.485,2.899,5.682v1.218H181.38c-1.353-1.237-2.213-3.255-2.58-6.058c-0.368-2.802-0.551-5.595-0.551-8.378
				v-5.913c0-4.291-0.89-7.614-2.667-9.972c-1.778-2.357-4.329-3.537-7.653-3.537H158.073z M158.073,69.414h8.813
				c3.517,0,6.194-1.052,8.03-3.16c1.835-2.106,2.754-5.092,2.754-8.957c0-3.943-0.909-7.073-2.725-9.392
				c-1.818-2.319-4.464-3.479-7.943-3.479h-8.929V69.414z"/>
			<path style="fill:#211D70;" d="M246.418,78.748h-25.8v24.524h30.902v12.755h-47.251V31.613h47.135v12.813h-30.786v21.567h25.8
				V78.748z"/>
			<path style="fill:#211D70;" d="M275.279,85.473v30.554H258.93V31.613h28.235c8.465,0,15.17,2.484,20.118,7.45
				c4.947,4.967,7.421,11.47,7.421,19.509c0,8.079-2.474,14.581-7.421,19.509c-4.948,4.928-11.654,7.392-20.118,7.392H275.279z
				 M275.279,72.66h11.885c3.672,0,6.465-1.313,8.378-3.942c1.913-2.628,2.869-5.972,2.869-10.03c0-4.136-0.956-7.547-2.869-10.233
				c-1.913-2.686-4.706-4.029-8.378-4.029h-11.885V72.66z"/>
			<path style="fill:#211D70;" d="M338.521,82.168v33.859h-16.349V31.671h25.278c8.387,0,14.987,2.184,19.799,6.551
				c4.812,4.368,7.218,10.456,7.218,18.263c0,4.368-1.015,8.156-3.044,11.364c-2.03,3.209-4.957,5.76-8.784,7.653
				c4.406,1.469,7.575,3.905,9.508,7.305c1.932,3.402,2.898,7.653,2.898,12.755v6.146c0,2.358,0.27,4.832,0.812,7.42
				c0.541,2.59,1.507,4.485,2.899,5.682v1.218h-16.929c-1.353-1.237-2.213-3.255-2.58-6.058c-0.368-2.802-0.551-5.595-0.551-8.378
				v-5.913c0-4.291-0.89-7.614-2.667-9.972c-1.778-2.357-4.329-3.537-7.653-3.537H338.521z M338.521,69.414h8.813
				c3.517,0,6.194-1.052,8.03-3.16c1.835-2.106,2.754-5.092,2.754-8.957c0-3.943-0.909-7.073-2.725-9.392
				c-1.818-2.319-4.464-3.479-7.943-3.479h-8.929V69.414z"/>
			<path style="fill:#211D70;" d="M444.607,85.647c0,9.934-2.803,17.683-8.407,23.249c-5.604,5.566-13.064,8.349-22.379,8.349
				c-9.315,0-16.755-2.783-22.322-8.349c-5.566-5.566-8.348-13.315-8.348-23.249V62.108c0-9.894,2.773-17.654,8.32-23.278
				c5.546-5.624,12.977-8.436,22.292-8.436c9.315,0,16.784,2.812,22.408,8.436c5.625,5.624,8.436,13.383,8.436,23.278V85.647z
				 M428.316,61.935c0-6.146-1.247-10.784-3.74-13.915c-2.493-3.131-6.098-4.696-10.813-4.696c-4.754,0-8.33,1.557-10.726,4.667
				c-2.397,3.112-3.595,7.76-3.595,13.944v23.713c0,6.262,1.208,10.958,3.624,14.089c2.415,3.131,6,4.696,10.755,4.696
				c4.754,0,8.357-1.565,10.813-4.696c2.454-3.131,3.682-7.827,3.682-14.089V61.935z"/>
			<path style="fill:#211D70;" d="M509.589,104.896c-2.397,3.362-5.866,6.261-10.407,8.696c-4.543,2.435-10.407,3.653-17.596,3.653
				c-9.123,0-16.436-2.658-21.944-7.972c-5.509-5.314-8.262-12.861-8.262-22.64V61.007c0-9.741,2.675-17.277,8.029-22.611
				c5.353-5.334,12.436-8,21.249-8c9.199,0,16.137,2.174,20.813,6.522c4.677,4.348,6.938,10.543,6.783,18.582l-0.116,0.348h-15.364
				c0-4.406-0.966-7.614-2.898-9.624c-1.934-2.009-4.851-3.015-8.755-3.015c-4.214,0-7.499,1.469-9.856,4.406
				c-2.358,2.937-3.536,7.363-3.536,13.277v25.742c0,6.029,1.197,10.514,3.595,13.451c2.396,2.938,5.817,4.406,10.262,4.406
				c3.169,0,5.662-0.377,7.479-1.13c1.816-0.754,3.209-1.749,4.174-2.987V83.328h-12.871V72.023h29.221V104.896z"/>
			<path style="fill:#211D70;" d="M534.739,82.168v33.859h-16.35V31.671h25.278c8.387,0,14.987,2.184,19.8,6.551
				c4.812,4.368,7.218,10.456,7.218,18.263c0,4.368-1.015,8.156-3.044,11.364c-2.029,3.209-4.958,5.76-8.784,7.653
				c4.406,1.469,7.575,3.905,9.508,7.305c1.933,3.402,2.899,7.653,2.899,12.755v6.146c0,2.358,0.27,4.832,0.811,7.42
				c0.541,2.59,1.507,4.485,2.9,5.682v1.218h-16.93c-1.353-1.237-2.213-3.255-2.58-6.058c-0.367-2.802-0.551-5.595-0.551-8.378
				v-5.913c0-4.291-0.889-7.614-2.666-9.972c-1.779-2.357-4.33-3.537-7.653-3.537H534.739z M534.739,69.414h8.813
				c3.516,0,6.193-1.052,8.029-3.16c1.835-2.106,2.754-5.092,2.754-8.957c0-3.943-0.909-7.073-2.725-9.392
				c-1.818-2.319-4.464-3.479-7.943-3.479h-8.928V69.414z"/>
			<path style="fill:#211D70;" d="M618.388,97.764h-21.104l-4.754,18.263h-17.045l23.944-84.415h16.93l23.944,84.415h-17.103
				L618.388,97.764z M600.647,84.894h14.378l-7.015-26.785h-0.348L600.647,84.894z"/>
			<path style="fill:#211D70;" d="M660.468,85.473v30.554h-16.35V31.613h28.236c8.464,0,15.17,2.484,20.118,7.45
				c4.946,4.967,7.42,11.47,7.42,19.509c0,8.079-2.474,14.581-7.42,19.509c-4.948,4.928-11.654,7.392-20.118,7.392H660.468z
				 M660.468,72.66h11.885c3.671,0,6.464-1.313,8.377-3.942c1.914-2.628,2.87-5.972,2.87-10.03c0-4.136-0.956-7.547-2.87-10.233
				c-1.913-2.686-4.706-4.029-8.377-4.029h-11.885V72.66z"/>
			<path style="fill:#211D70;" d="M767.191,116.027H750.9V80.835h-27.191v35.192h-16.35V31.613h16.35V68.08H750.9V31.613h16.291
				V116.027z"/>
			<path style="fill:#211D70;" d="M802.025,68.312h0.349l14.552-36.699h17.858l-24.641,54.325v30.09H793.85V84.894l-24.176-53.281
				h17.857L802.025,68.312z"/>
		</g>
		<g>
			<path style="fill:#211D70;" d="M140.676,212.104v-65.808h18.848c6.87,0,12.218,1.499,16.045,4.497
				c3.826,2.999,5.74,7.481,5.74,13.447c0,3.104-0.701,5.869-2.102,8.294c-1.402,2.425-3.473,4.225-6.215,5.401
				c3.676,0.754,6.411,2.517,8.204,5.289c1.792,2.772,2.689,6.011,2.689,9.717c0,6.298-1.83,11.066-5.491,14.305
				c-3.661,3.24-8.881,4.859-15.661,4.859H140.676z M153.422,174.138h6.689c2.742-0.059,4.836-0.828,6.282-2.305
				c1.447-1.475,2.17-3.615,2.17-6.417c0-3.134-0.754-5.439-2.26-6.915c-1.507-1.476-3.767-2.215-6.779-2.215h-6.102V174.138z
				 M153.422,182.951v19.209h9.311c2.772,0,4.866-0.776,6.282-2.328c1.416-1.551,2.125-3.849,2.125-6.892
				c0-3.134-0.648-5.559-1.944-7.277c-1.296-1.717-3.315-2.621-6.057-2.712h-0.452H153.422z"/>
			<path style="fill:#211D70;" d="M205.716,212.104h-12.7v-65.808h12.7V212.104z"/>
			<path style="fill:#211D70;" d="M254.89,156.285h-15.457v55.819h-12.791v-55.819h-15.051v-9.989h43.299V156.285z"/>
			<path style="fill:#211D70;" d="M289.421,195.019c0-2.621-0.671-4.693-2.011-6.215c-1.341-1.521-3.744-3.005-7.209-4.451
				c-6.75-2.38-11.827-5.077-15.231-8.091c-3.405-3.013-5.107-7.232-5.107-12.655c0-5.393,1.944-9.786,5.83-13.175
				c3.887-3.39,8.843-5.085,14.87-5.085c6.388,0,11.525,1.808,15.413,5.425c3.887,3.615,5.77,8.467,5.65,14.554l-0.09,0.271h-12.384
				c0-3.405-0.761-5.989-2.283-7.751c-1.522-1.763-3.699-2.644-6.531-2.644c-2.441,0-4.339,0.807-5.695,2.418
				c-1.356,1.612-2.034,3.624-2.034,6.035c0,2.229,0.769,4.068,2.305,5.514c1.537,1.446,4.173,3.028,7.91,4.746
				c6.358,2.109,11.171,4.776,14.441,7.999c3.269,3.225,4.904,7.564,4.904,13.017c0,5.635-1.914,10.064-5.74,13.288
				c-3.827,3.224-8.904,4.836-15.232,4.836c-6.237,0-11.571-1.74-16-5.22c-4.43-3.48-6.569-8.775-6.418-15.888l0.091-0.271h12.429
				c0,4.129,0.836,7.096,2.508,8.904c1.673,1.808,4.136,2.712,7.39,2.712c2.742,0,4.798-0.753,6.17-2.259
				C288.736,199.525,289.421,197.52,289.421,195.019z"/>
			<path style="fill:#211D70;" d="M341.309,186.161v25.943h-9.175v-65.808h21.379c6.237,0,11.125,1.831,14.667,5.492
				c3.54,3.661,5.31,8.474,5.31,14.44c0,5.996-1.77,10.818-5.31,14.463c-3.541,3.646-8.429,5.469-14.667,5.469H341.309z
				 M341.309,179.11h12.203c3.555,0,6.252-1.213,8.09-3.638c1.838-2.425,2.757-5.476,2.757-9.153c0-3.707-0.912-6.794-2.735-9.265
				c-1.823-2.471-4.528-3.707-8.113-3.707h-12.203V179.11z"/>
			<path style="fill:#211D70;" d="M392.02,150.364h-9.22v-8.768h9.22V150.364z M392.02,212.104h-9.22V163.2h9.22V212.104z"/>
			<path style="fill:#211D70;" d="M413.037,212.104h-9.22v-70.508h9.22V212.104z"/>
			<path style="fill:#211D70;" d="M449.647,212.104c-0.392-1.476-0.7-2.795-0.926-3.955c-0.226-1.16-0.369-2.312-0.429-3.458
				c-1.296,2.411-3.005,4.407-5.13,5.989c-2.125,1.581-4.543,2.373-7.254,2.373c-4.369,0-7.721-1.296-10.056-3.887
				c-2.335-2.591-3.502-6.131-3.502-10.622c0-4.61,1.619-8.24,4.858-10.893c3.239-2.651,7.751-3.977,13.537-3.977h7.502v-5.017
				c0-2.982-0.663-5.31-1.989-6.983s-3.224-2.508-5.694-2.508c-2.23,0-4,0.723-5.311,2.169c-1.31,1.446-1.966,3.3-1.966,5.559
				l-8.768,0.046l-0.09-0.272c-0.181-3.796,1.295-7.141,4.43-10.034c3.133-2.892,7.231-4.339,12.293-4.339
				c4.851,0,8.784,1.424,11.797,4.272c3.013,2.848,4.519,6.908,4.519,12.18v22.69c0,1.868,0.12,3.684,0.362,5.446
				c0.241,1.763,0.617,3.502,1.13,5.22H449.647z M437.805,206.002c2.501,0,4.716-0.775,6.645-2.328
				c1.927-1.551,3.193-3.426,3.796-5.627v-8.678h-7.638c-2.832,0-5.047,0.897-6.643,2.689c-1.598,1.794-2.395,3.956-2.395,6.486
				c0,2.26,0.542,4.069,1.627,5.425C434.28,205.325,435.817,206.002,437.805,206.002z"/>
			<path style="fill:#211D70;" d="M476.269,163.2l0.543,7.276c1.386-2.59,3.133-4.602,5.243-6.033
				c2.109-1.431,4.504-2.147,7.186-2.147c4.339,0,7.721,1.598,10.147,4.792c2.425,3.194,3.639,8.165,3.639,14.915v30.102h-9.176
				v-30.056c0-4.61-0.64-7.864-1.92-9.763c-1.281-1.898-3.217-2.848-5.808-2.848c-2.109,0-3.917,0.551-5.423,1.65
				c-1.507,1.1-2.712,2.614-3.616,4.542v36.475h-9.22V163.2H476.269z"/>
			<path style="fill:#211D70;" d="M523.319,150.364h-9.22v-8.768h9.22V150.364z M523.319,212.104h-9.22V163.2h9.22V212.104z"/>
		</g>
	</g>
	<g>
		<g>
			<rect x="8.307" y="12.87" style="fill:#ED1C24;" width="8.672" height="208.822"/>
		</g>
		<g>
			<rect x="23.094" y="12.87" style="fill:#211D70;" width="11.563" height="208.822"/>
		</g>
		<g>
			<rect x="58.811" y="12.87" style="fill:#76C2E5;" width="11.563" height="208.822"/>
		</g>
		<g>
			<rect x="81.18" y="12.87" style="fill:#FAC92E;" width="5.782" height="208.822"/>
		</g>
		<g>
			<rect x="97.418" y="12.87" style="fill:#2D7EC2;" width="5.782" height="208.822"/>
		</g>
		<g>
			<rect x="45.469" y="12.87" style="fill:#FCAF17;" width="5.782" height="208.822"/>
		</g>
	</g>
</g>
</svg>
