<?xml version="1.0" encoding="iso-8859-1"?>
<!-- Generator: Adobe Illustrator 29.7.1, SVG Export Plug-In . SVG Version: 9.03 Build 0)  -->
<svg version="1.1" id="Layer_1" xmlns="http://www.w3.org/2000/svg" xmlns:xlink="http://www.w3.org/1999/xlink" x="0px" y="0px"
	 viewBox="0 0 1372.609 232.435" style="enable-background:new 0 0 1372.609 232.435;" xml:space="preserve">
<g>
	<g>
		<path style="fill:#211D70;" d="M158.073,123.168v33.859h-16.349V72.671h25.278c8.387,0,14.987,2.184,19.799,6.551
			c4.812,4.368,7.218,10.456,7.218,18.263c0,4.368-1.015,8.156-3.044,11.364c-2.03,3.209-4.957,5.76-8.784,7.653
			c4.406,1.469,7.575,3.905,9.508,7.305c1.932,3.402,2.898,7.653,2.898,12.755v6.146c0,2.358,0.27,4.832,0.812,7.42
			c0.541,2.59,1.507,4.485,2.899,5.682v1.218H181.38c-1.353-1.237-2.213-3.255-2.58-6.058c-0.368-2.802-0.551-5.595-0.551-8.378
			v-5.913c0-4.291-0.89-7.614-2.667-9.972c-1.778-2.357-4.329-3.537-7.653-3.537h-9.856V123.168z M158.073,110.414h8.813
			c3.517,0,6.194-1.052,8.03-3.16c1.835-2.106,2.754-5.092,2.754-8.957c0-3.943-0.909-7.073-2.725-9.392
			c-1.818-2.319-4.464-3.479-7.943-3.479h-8.929V110.414z"/>
		<path style="fill:#211D70;" d="M246.418,119.748h-25.8v24.524h30.902v12.755h-47.251V72.613h47.135v12.813h-30.786v21.567h25.8
			L246.418,119.748L246.418,119.748z"/>
		<path style="fill:#211D70;" d="M275.279,126.473v30.554H258.93V72.613h28.235c8.465,0,15.17,2.484,20.118,7.45
			c4.947,4.967,7.421,11.47,7.421,19.509c0,8.079-2.474,14.581-7.421,19.509c-4.948,4.928-11.654,7.392-20.118,7.392H275.279z
			 M275.279,113.66h11.885c3.672,0,6.465-1.313,8.378-3.942c1.913-2.628,2.869-5.972,2.869-10.03c0-4.136-0.956-7.547-2.869-10.233
			s-4.706-4.029-8.378-4.029h-11.885V113.66z"/>
		<path style="fill:#211D70;" d="M338.521,123.168v33.859h-16.349V72.671h25.278c8.387,0,14.987,2.184,19.799,6.551
			c4.812,4.368,7.218,10.456,7.218,18.263c0,4.368-1.015,8.156-3.044,11.364c-2.03,3.209-4.957,5.76-8.784,7.653
			c4.406,1.469,7.575,3.905,9.508,7.305c1.932,3.402,2.898,7.653,2.898,12.755v6.146c0,2.358,0.27,4.832,0.812,7.42
			c0.541,2.59,1.507,4.485,2.899,5.682v1.218h-16.929c-1.353-1.237-2.213-3.255-2.58-6.058c-0.368-2.802-0.551-5.595-0.551-8.378
			v-5.913c0-4.291-0.89-7.614-2.667-9.972c-1.778-2.357-4.329-3.537-7.653-3.537h-9.855V123.168z M338.521,110.414h8.813
			c3.517,0,6.194-1.052,8.03-3.16c1.835-2.106,2.754-5.092,2.754-8.957c0-3.943-0.909-7.073-2.725-9.392
			c-1.818-2.319-4.464-3.479-7.943-3.479h-8.929V110.414z"/>
		<path style="fill:#211D70;" d="M444.607,126.647c0,9.934-2.803,17.683-8.407,23.249c-5.604,5.566-13.064,8.349-22.379,8.349
			s-16.755-2.783-22.322-8.349c-5.566-5.566-8.348-13.315-8.348-23.249v-23.539c0-9.894,2.773-17.654,8.32-23.278
			c5.546-5.624,12.977-8.436,22.292-8.436s16.784,2.812,22.408,8.436c5.625,5.624,8.436,13.383,8.436,23.278V126.647z
			 M428.316,102.935c0-6.146-1.247-10.784-3.74-13.915c-2.493-3.131-6.098-4.696-10.813-4.696c-4.754,0-8.33,1.557-10.726,4.667
			c-2.397,3.112-3.595,7.76-3.595,13.944v23.713c0,6.262,1.208,10.958,3.624,14.089c2.415,3.131,6,4.696,10.755,4.696
			c4.754,0,8.357-1.565,10.813-4.696c2.454-3.131,3.682-7.827,3.682-14.089V102.935z"/>
		<path style="fill:#211D70;" d="M509.589,145.896c-2.397,3.362-5.866,6.261-10.407,8.696c-4.543,2.435-10.407,3.653-17.596,3.653
			c-9.123,0-16.436-2.658-21.944-7.972c-5.509-5.314-8.262-12.861-8.262-22.64v-25.626c0-9.741,2.675-17.277,8.029-22.611
			c5.353-5.334,12.436-8,21.249-8c9.199,0,16.137,2.174,20.813,6.522c4.677,4.348,6.938,10.543,6.783,18.582l-0.116,0.348h-15.364
			c0-4.406-0.966-7.614-2.898-9.624c-1.934-2.009-4.851-3.015-8.755-3.015c-4.214,0-7.499,1.469-9.856,4.406
			c-2.358,2.937-3.536,7.363-3.536,13.277v25.742c0,6.029,1.197,10.514,3.595,13.451c2.396,2.938,5.817,4.406,10.262,4.406
			c3.169,0,5.662-0.377,7.479-1.13c1.816-0.754,3.209-1.749,4.174-2.987v-17.046h-12.871v-11.305h29.221L509.589,145.896
			L509.589,145.896z"/>
		<path style="fill:#211D70;" d="M534.739,123.168v33.859h-16.35V72.671h25.278c8.387,0,14.987,2.184,19.8,6.551
			c4.812,4.368,7.218,10.456,7.218,18.263c0,4.368-1.015,8.156-3.044,11.364c-2.029,3.209-4.958,5.76-8.784,7.653
			c4.406,1.469,7.575,3.905,9.508,7.305c1.933,3.402,2.899,7.653,2.899,12.755v6.146c0,2.358,0.27,4.832,0.811,7.42
			c0.541,2.59,1.507,4.485,2.9,5.682v1.218h-16.93c-1.353-1.237-2.213-3.255-2.58-6.058c-0.367-2.802-0.551-5.595-0.551-8.378
			v-5.913c0-4.291-0.889-7.614-2.666-9.972c-1.779-2.357-4.33-3.537-7.653-3.537h-9.856V123.168z M534.739,110.414h8.813
			c3.516,0,6.193-1.052,8.029-3.16c1.835-2.106,2.754-5.092,2.754-8.957c0-3.943-0.909-7.073-2.725-9.392
			c-1.818-2.319-4.464-3.479-7.943-3.479h-8.928L534.739,110.414L534.739,110.414z"/>
		<path style="fill:#211D70;" d="M618.388,138.764h-21.104l-4.754,18.263h-17.045l23.944-84.415h16.93l23.944,84.415H623.2
			L618.388,138.764z M600.647,125.894h14.378l-7.015-26.785h-0.348L600.647,125.894z"/>
		<path style="fill:#211D70;" d="M660.468,126.473v30.554h-16.35V72.613h28.236c8.464,0,15.17,2.484,20.118,7.45
			c4.946,4.967,7.42,11.47,7.42,19.509c0,8.079-2.474,14.581-7.42,19.509c-4.948,4.928-11.654,7.392-20.118,7.392H660.468z
			 M660.468,113.66h11.885c3.671,0,6.464-1.313,8.377-3.942c1.914-2.628,2.87-5.972,2.87-10.03c0-4.136-0.956-7.547-2.87-10.233
			c-1.913-2.686-4.706-4.029-8.377-4.029h-11.885V113.66z"/>
		<path style="fill:#211D70;" d="M767.191,157.027H750.9v-35.192h-27.191v35.192h-16.35V72.613h16.35v36.467H750.9V72.613h16.291
			L767.191,157.027L767.191,157.027z"/>
		<path style="fill:#211D70;" d="M802.025,109.312h0.349l14.552-36.699h17.858l-24.641,54.325v30.09H793.85v-31.134l-24.176-53.281
			h17.857L802.025,109.312z"/>
	</g>
	<g>
		<path style="fill:#211D70;" d="M873.308,157.517V74.53h23.768c8.663,0,15.407,1.89,20.234,5.671
			c4.825,3.782,7.238,9.434,7.238,16.957c0,3.914-0.884,7.401-2.651,10.459c-1.768,3.058-4.38,5.328-7.837,6.811
			c4.636,0.951,8.085,3.174,10.346,6.67c2.26,3.496,3.391,7.58,3.391,12.254c0,7.942-2.308,13.955-6.924,18.039
			c-4.617,4.086-11.199,6.127-19.749,6.127h-27.815V157.517z M889.381,109.64h8.435c3.458-0.074,6.098-1.044,7.922-2.907
			c1.825-1.86,2.736-4.559,2.736-8.092c0-3.952-0.951-6.859-2.85-8.72c-1.9-1.861-4.75-2.793-8.549-2.793h-7.695V109.64
			L889.381,109.64z M889.381,120.754v24.223h11.742c3.496,0,6.136-0.979,7.922-2.936c1.786-1.956,2.68-4.854,2.68-8.691
			c0-3.952-0.817-7.01-2.451-9.177c-1.634-2.165-4.18-3.305-7.638-3.42h-0.57H889.381z"/>
		<path style="fill:#211D70;" d="M955.326,157.517h-16.015V74.53h16.015V157.517z"/>
		<path style="fill:#211D70;" d="M1017.337,87.127h-19.492v70.39h-16.13v-70.39h-18.98V74.53h54.602V87.127z"/>
		<path style="fill:#211D70;" d="M1060.882,135.972c0-3.305-0.846-5.918-2.536-7.837c-1.691-1.918-4.721-3.789-9.091-5.613
			c-8.512-3.001-14.914-6.402-19.207-10.203c-4.294-3.8-6.44-9.12-6.44-15.959c0-6.801,2.451-12.341,7.352-16.614
			c4.902-4.275,11.151-6.412,18.752-6.412c8.056,0,14.534,2.28,19.437,6.841c4.902,4.559,7.276,10.677,7.125,18.353l-0.114,0.342
			h-15.617c0-4.294-0.96-7.552-2.879-9.774c-1.919-2.223-4.665-3.334-8.236-3.334c-3.078,0-5.472,1.018-7.182,3.049
			c-1.71,2.033-2.565,4.57-2.565,7.61c0,2.811,0.97,5.13,2.907,6.953c1.938,1.823,5.262,3.818,9.975,5.985
			c8.018,2.66,14.087,6.023,18.211,10.087c4.122,4.067,6.184,9.539,6.184,16.415c0,7.106-2.414,12.691-7.238,16.757
			c-4.826,4.066-11.228,6.098-19.208,6.098c-7.865,0-14.592-2.194-20.177-6.583c-5.586-4.388-8.284-11.066-8.093-20.036l0.115-0.342
			h15.674c0,5.207,1.054,8.948,3.163,11.228c2.11,2.28,5.216,3.42,9.319,3.42c3.458,0,6.051-0.95,7.781-2.849
			C1060.019,141.655,1060.882,139.126,1060.882,135.972z"/>
		<path style="fill:#211D70;" d="M1126.316,124.802v32.715h-11.57V74.53h26.96c7.865,0,14.029,2.309,18.496,6.926
			c4.464,4.617,6.696,10.686,6.696,18.21c0,7.561-2.232,13.642-6.696,18.239c-4.465,4.598-10.629,6.897-18.496,6.897h-15.39V124.802
			z M1126.316,115.91h15.389c4.483,0,7.884-1.53,10.202-4.588c2.318-3.058,3.477-6.905,3.477-11.542
			c0-4.675-1.15-8.568-3.449-11.684c-2.299-3.116-5.71-4.675-10.231-4.675h-15.389v32.488H1126.316z"/>
		<path style="fill:#211D70;" d="M1190.264,79.66h-11.627V68.603h11.627V79.66z M1190.264,157.517h-11.627v-61.67h11.627V157.517z"
			/>
		<path style="fill:#211D70;" d="M1216.768,157.517h-11.627V68.603h11.627V157.517z"/>
		<path style="fill:#211D70;" d="M1262.935,157.517c-0.494-1.861-0.883-3.525-1.168-4.987c-0.285-1.463-0.465-2.916-0.541-4.361
			c-1.634,3.04-3.789,5.557-6.469,7.552c-2.68,1.994-5.729,2.992-9.148,2.992c-5.509,0-9.736-1.634-12.681-4.902
			c-2.945-3.267-4.416-7.731-4.416-13.395c0-5.813,2.042-10.391,6.126-13.737c4.085-3.343,9.774-5.015,17.071-5.015h9.46v-6.327
			c0-3.76-0.836-6.696-2.508-8.806c-1.672-2.11-4.066-3.163-7.18-3.163c-2.812,0-5.044,0.912-6.697,2.735
			c-1.652,1.823-2.479,4.161-2.479,7.01l-11.057,0.058l-0.114-0.343c-0.228-4.787,1.633-9.005,5.586-12.653
			c3.951-3.647,9.119-5.472,15.502-5.472c6.117,0,11.077,1.796,14.877,5.387s5.699,8.711,5.699,15.36v28.613
			c0,2.356,0.151,4.646,0.457,6.868c0.304,2.223,0.778,4.416,1.425,6.583h-11.744V157.517z M1248.001,149.822
			c3.154,0,5.947-0.977,8.38-2.936c2.43-1.956,4.026-4.32,4.787-7.096v-10.943h-9.632c-3.571,0-6.365,1.131-8.377,3.391
			c-2.015,2.262-3.02,4.989-3.02,8.179c0,2.85,0.683,5.131,2.052,6.841C1243.556,148.969,1245.495,149.822,1248.001,149.822z"/>
		<path style="fill:#211D70;" d="M1296.506,95.847l0.685,9.175c1.748-3.266,3.951-5.803,6.612-7.608
			c2.66-1.805,5.68-2.707,9.062-2.707c5.472,0,9.736,2.015,12.796,6.043c3.058,4.028,4.589,10.296,4.589,18.809v37.96h-11.571
			v-37.902c0-5.813-0.807-9.917-2.421-12.312c-1.615-2.393-4.057-3.591-7.324-3.591c-2.66,0-4.939,0.695-6.839,2.081
			c-1.9,1.387-3.42,3.296-4.56,5.728v45.997h-11.627V95.847H1296.506z"/>
		<path style="fill:#211D70;" d="M1355.839,79.66h-11.627V68.603h11.627V79.66z M1355.839,157.517h-11.627v-61.67h11.627V157.517z"
			/>
	</g>
	<g>
		<g>
			<rect x="8.307" y="12.87" style="fill:#ED1C24;" width="8.672" height="208.822"/>
		</g>
		<g>
			<rect x="23.094" y="12.87" style="fill:#211D70;" width="11.563" height="208.822"/>
		</g>
		<g>
			<rect x="58.811" y="12.87" style="fill:#76C2E5;" width="11.563" height="208.822"/>
		</g>
		<g>
			<rect x="81.18" y="12.87" style="fill:#FAC92E;" width="5.782" height="208.822"/>
		</g>
		<g>
			<rect x="97.418" y="12.87" style="fill:#2D7EC2;" width="5.782" height="208.822"/>
		</g>
		<g>
			<rect x="45.469" y="12.87" style="fill:#FCAF17;" width="5.782" height="208.822"/>
		</g>
	</g>
	<g>
		<path style="fill:#211D70;" d="M823.967,143.961h12.561v12.32c0,1.813-0.333,3.479-1,5c-0.667,1.52-1.561,2.84-2.68,3.96
			c-1.12,1.12-2.44,2.04-3.961,2.76c-1.52,0.721-3.133,1.214-4.84,1.48v-5.761c0.8-0.159,1.561-0.479,2.28-0.96
			c0.72-0.479,1.347-1.053,1.88-1.72s0.934-1.413,1.2-2.24c0.267-0.826,0.373-1.666,0.32-2.52h-5.761V143.961z"/>
	</g>
</g>
</svg>
